{"title":"Roadies X - 10 - Journey - 8  Full Episode - April 13 2013","uid":8369644,"size":256645957,"categoryP":"video","categoryS":"tv_shows","magnet":"?xt=urn:btih:7bf42378a8bc1b0528995e4dc9047cde57b3daca&amp;dn=Roadies+X+-+10+-+Journey+-+8++Full+Episode+-+April+13+2013&amp;tr=udp%3A%2F%2Ftracker.openbittorrent.com%3A80&amp;tr=udp%3A%2F%2Fopen.demonii.com%3A1337&amp;tr=udp%3A%2F%2Ftracker.coppersurfer.tk%3A6969&amp;tr=udp%3A%2F%2Fexodus.desync.com%3A6969","seeders":1,"leechers":0,"uploader":"Bclassics","files":1,"time":1365874026,"description":"Roadies X - 10 - Journey - 8  Full Episode - April 13 2013 [DADA RRG]\n\nRoadies.X.10.Journey.8 .Full.Episode.April.13.2013.RRG.DADA.DBBians.Com.flv\n \n\n\n-: Screens :-\n\n &lt;a href=&quot;\nhttp://desibbrg.org/images/16271139465628498947.jpg&quot; rel=&quot;nofollow&quot; target=&quot;_NEW&quot;&gt;\nhttp://desibbrg.org/images/16271139465628498947.jpg&lt;/a&gt;\n\n\n-: INFo :-\n\n\nGeneral\nFormat : Flash Video File size : 245 MiB Duration : 49mn 5s Overall bit rate mode : Variable Overall bit rate : 697 Kbps Writing application : Lavf53.6.0 Video Format : Sorenson Spark Codec ID : 2 Duration : 49mn 5s Bit rate : 781 Kbps Width : 515 pixels Height : 386 pixels Display aspect ratio : 4:3 Frame rate mode : Constant Frame rate : 25.000 fps Bit depth : 8 bits Bits/(Pixel*Frame) : 0.157 Stream size : 274 MiB Audio Format : MPEG Audio Format version : Version 2 Format profile : Layer 3 Mode : Joint stereo Mode extension : MS Stereo Codec ID : 2 Codec ID/Hint : MP3 Duration : 49mn 5s Bit rate mode : Variable Bit rate : 96.0 Kbps Channel(s) : 2 channels Sampling rate : 22.05 KHz Compression mode : Lossy Stream size : 33.7 MiB (14%) \n\n","torrent":{"xt":"urn:btih:7bf42378a8bc1b0528995e4dc9047cde57b3daca","amp;dn":"Roadies+X+-+10+-+Journey+-+8++Full+Episode+-+April+13+2013","amp;tr":["udp%3A%2F%2Ftracker.openbittorrent.com%3A80","udp%3A%2F%2Fopen.demonii.com%3A1337","udp%3A%2F%2Ftracker.coppersurfer.tk%3A6969","udp%3A%2F%2Fexodus.desync.com%3A6969"],"infoHash":"7bf42378a8bc1b0528995e4dc9047cde57b3daca","infoHashBuffer":{"type":"Buffer","data":[123,244,35,120,168,188,27,5,40,153,94,77,201,4,124,222,87,179,218,202]},"announce":[],"urlList":[]}}